<?xml version="1.0" encoding="utf-8"?>
<!-- Uploaded to: SVG Repo, www.svgrepo.com, Generator: SVG Repo Mixer Tools -->
<svg width="800px" height="800px" viewBox="-16.21 0 270.025 270.025" xmlns="http://www.w3.org/2000/svg"><defs><style>.a{fill:#ffffff;}.b{fill:#f4b3b3;}.c{fill:#b5886a;}.d{fill:#211715;}.e{fill:#d9d9d9;}</style></defs><path class="a" d="M141.024,267.115a5.015,5.015,0,0,0,.678-.576,3.864,3.864,0,0,0,1.36-2.38c.235-7.2-6.011-12.262-12.124-15.752-2.912-1.662-5.6-3.224-9.027-5.233-.8-.468-1.549-.959-2.271-1.432-.125-3.959-.247-7.991-.329-10.74-.366-.256-.6-.422-.6-.422-1.743-.967-3.318-2.2-5.484-3.413-4.812-2.71-8.041.3-12.166,2.941-2.968,1.888-4.324,2.639-7.08,4.38q2.758.278,5.462.559c.011,5.195-.619,19.48-.829,24.609l1.954.058c4.2.241,11.326.5,15.156,1.736l14.738,4.767C133.491,267.2,138.013,269.228,141.024,267.115Z"/><path class="b" d="M36.472,180.086c5.29-7.83,11.419-22.577,14.121-32.167.551-2.539,1.016-4.16,2.539-10.158,3.267-12.862,4.777-30.472,17.814-37.475C75.7,97.731,80.7,95.494,85.7,93.3c5,3.682,14.058,7.185,23.576,7.21,8.344.021,17.492-2.985,21.571-6.438l1.573-1.331c5.428,2.377,10.869,4.775,16.032,7.547,13.037,7,14.548,24.613,17.814,37.475,1.523,6,1.988,7.619,2.54,10.158,2.7,9.59,8.83,24.337,14.121,32.167l-12.681,12.789-6.119-4.007c-8.006-6.384-12.889-17.117-17.569-26.344l-3.783-7.18-.57-1.083c-.212,1.845-.472,3.6-.785,5.238a37.944,37.944,0,0,0-.759,5.024,30.631,30.631,0,0,0,.239,4.934,203.221,203.221,0,0,0,4.209,25.617c-3.25,1.3-13.492,1.709-18.889,2.027-13.778.81-49.1.5-53,.116a.878.878,0,0,1-.755-1.025c1.509-9.986,3.1-19.429,4.181-29.461a58.042,58.042,0,0,0,.482-9.093c-.059-1.208-.192-2.409-.36-3.609l-3.93,8.5c-4.679,9.227-9.563,19.96-17.569,26.344l-5.468,4.9Z"/><path class="a" d="M117.788,197.418c-14.433.345-35.846.172-42.713-.1l-.075.022c-15.689,4.579-31.938,11.111-47.275,16.732a55.663,55.663,0,0,0-13.176,7.032,21.412,21.412,0,0,0-9.323,15.051c-.878,7.915,1.781,15.49,8.17,18.74a42.207,42.207,0,0,0,13.824,3.67c24.12,2.83,53.12,3.164,71.33,2.8.02-.721.15-3.7.3-7.463l21.236.575c2.837.078,47.234.791,68.264-.5,9.672-.6,20.94-.927,25.011-9.721,3.151-6.806.595-16.71-4.781-22.341-3.438-3.6-9.149-7.392-16.5-9.959-13.776-4.812-35.133-11.548-48.886-16.352-4.324.892-12.4,1.225-16.977,1.5C123.927,197.236,121.034,197.34,117.788,197.418Z"/><path class="c" d="M135.93,93.741c7.779,2.79,14.546-4.261,14.5-9.7a26.624,26.624,0,0,0-1.681-9.112c-1.384-4.008-4.065-12.149-4.259-26.7a97.959,97.959,0,0,0-.189-13.206c-.6-8.474-4.392-17.936-9.843-23.195a20.8,20.8,0,0,0-4.684-3.664l-5.217-3.2a39.56,39.56,0,0,0-15.826-3.032,38.776,38.776,0,0,0-24.912,9.739C76.671,18.51,72.14,31,72.711,48.228h0c0,11.675-.958,20.094-2.3,24.882a56.577,56.577,0,0,0-1.724,12.058c-.039,4.833,4.6,10.076,11.721,9.9Z"/><path class="a" d="M81.761,45.77a3.854,3.854,0,0,1,.659.483l4.413-4.215c3.306-2.781,6.411-5.692,9.563-8.789,1.544-1.515,3.1-3.076,4.694-4.687a25.957,25.957,0,0,1-1.131,6.54,1.146,1.146,0,0,0,1.524,1.312,39.055,39.055,0,0,0,18.059-12.945,43.076,43.076,0,0,0,3.8,10.672c1.945,3.409,8.2,11.121,13.144,12.036a4.386,4.386,0,0,1,2.983-1,3.98,3.98,0,0,1,3.548,1.877c1.205,1.991,1.154,5.659.345,7.929a11.559,11.559,0,0,1-3.733,5.612,4.628,4.628,0,0,1-3.593,1.218c-.448,1.436-1.1,2.758-1.3,3.376-.95,2.579-6.34,11.832-13.071,14.987a38.275,38.275,0,0,0,.557,5.025c.332,1.9.228,3.59,2.863,4.541.145.053,5.341,2.522,7.238,3.414-.872.537-1.474.91-1.474.91-4.079,3.453-13.227,6.459-21.571,6.438a43.044,43.044,0,0,1-22.984-6.787l-.222-.155c2.143-.963,8.141-3.766,8.288-3.82C97,88.8,96.891,87.1,97.224,85.205a35.243,35.243,0,0,0,.557-4.885A23.942,23.942,0,0,1,89.123,73.4a32.4,32.4,0,0,1-6.153-11.62,4.792,4.792,0,0,1-3.745-.966,12.153,12.153,0,0,1-3.775-5.83c-.809-2.27-.86-5.938.345-7.929a3.98,3.98,0,0,1,3.548-1.877A4.571,4.571,0,0,1,81.761,45.77Z"/><path class="d" d="M142.718,197.55c14.139,4.933,28.434,9.408,42.619,14.2,6.994,2.365,14.051,4.742,19.759,9.622a21.3,21.3,0,0,1,7.583,17.66,11.942,11.942,0,0,1-3.805,8,17.282,17.282,0,0,1-7.892,3.594c-5.8,1.312-11.933,1.372-17.856,1.617-12.213.5-24.45.53-36.672.5-8.514-.021-17.031-.075-25.544-.243-.273-.006-.547-.011-.82-.018l2,2c-.524-7.9-.551-15.863-.788-23.778q-.047-1.578-.094-3.155l-2,2,21.163-1.283,33.561-2.034,7.7-.466c2.558-.155,2.575-4.156,0-4l-21.163,1.282-33.561,2.034-7.7.467a2.033,2.033,0,0,0-2,2c.222,7.53.444,15.061.707,22.59.05,1.446.079,2.9.175,4.343a2.047,2.047,0,0,0,2,2c7.752.21,15.514.218,23.268.251,12.747.053,25.508.043,38.248-.431a138.184,138.184,0,0,0,18.622-1.458c6.672-1.167,12.946-4.295,15.449-10.973,2.546-6.794.466-15.238-3.695-20.954-4.56-6.266-11.99-10.268-19.146-12.811-14.637-5.2-29.5-9.747-44.21-14.746q-2.426-.825-4.845-1.668c-2.435-.85-3.482,3.013-1.063,3.857Z"/><path class="a" d="M138.555,254.01c2.753,2.784,4.638,6.135,4.507,10.149a3.864,3.864,0,0,1-1.36,2.38c-2.971,3.013-7.974.734-11.239-.322l-14.738-4.767c-3.83-1.238-10.959-1.5-15.156-1.736l-1.951-.108c.108-2.655.325-7.673.509-12.633l7.135-4.79c.877-.528,1.875-1.158,3.144-1.936,5.018-3.077,8,.286,12.5,2.927,3.425,2.009,6.115,3.571,9.027,5.233A35.513,35.513,0,0,1,138.555,254.01Z"/><path class="d" d="M74.468,195.415c-13.963,4.091-27.534,9.375-41.154,14.464-11.439,4.274-25.582,9.394-29.356,22.432a24.376,24.376,0,0,0,1.247,16.761c2.553,5.431,7.507,8.243,13.09,9.825,6.438,1.823,13.307,2.214,19.948,2.774,6.7.566,13.416.964,20.135,1.249q20.07.851,40.172.451a2.038,2.038,0,0,0,2-2c.251-8.774.9-17.544.894-26.324a2.054,2.054,0,0,0-2-2c-15.692-1.635-31.41-3-47.1-4.615q-6.794-.7-13.578-1.474a2.012,2.012,0,0,0-2,2,2.047,2.047,0,0,0,2,2c15.831,1.82,31.7,3.239,47.564,4.776q6.561.636,13.117,1.313l-2-2c.007,8.78-.643,17.55-.894,26.324l2-2c-23.742.465-47.732.023-71.33-2.8a47.984,47.984,0,0,1-9.5-2.035,15.68,15.68,0,0,1-6.665-3.866c-3.414-3.621-4.292-8.95-3.9-13.744,1.04-12.636,14.267-18.374,24.592-22.207,14.507-5.386,28.924-11.091,43.787-15.445,2.465-.722,1.416-4.583-1.063-3.857Z"/><path class="d" d="M107.271,243.91c2.3-1.394,4.725-3.588,7.576-2.592a16.015,16.015,0,0,1,3.31,1.841c1.381.9,2.775,1.762,4.2,2.594,5.048,2.953,10.741,5.525,14.874,9.761a13.109,13.109,0,0,1,3.649,6.319,6.788,6.788,0,0,1,.19,1.956,1.934,1.934,0,0,1-.781,1.336,3.777,3.777,0,0,1-3.084.9c-2.447-.177-4.848-1.292-7.159-2.04l-10.935-3.537a45.829,45.829,0,0,0-9.314-2.087c-3.066-.334-6.148-.468-9.226-.643-2.572-.145-2.564,3.855,0,4,3.015.171,6.034.3,9.038.623a44.709,44.709,0,0,1,9.152,2.195c3.91,1.265,7.839,2.483,11.732,3.8,2.77.937,5.637,2.025,8.611,1.6a6.728,6.728,0,0,0,5.953-6.688,15.129,15.129,0,0,0-3.261-8.535c-4.045-5.277-10.236-8.219-15.85-11.49-1.834-1.069-3.664-2.135-5.441-3.3a20.74,20.74,0,0,0-4.593-2.458c-4.066-1.383-7.333.983-10.658,2.995-2.2,1.331-.191,4.791,2.019,3.454Z"/><path class="d" d="M95.863,235.668c1.7-1.054,3.41-2.075,5.1-3.134,1.887-1.182,3.686-2.551,5.659-3.588a5.47,5.47,0,0,1,5-.358c2.157.969,4.025,2.555,6.076,3.719,2.242,1.272,4.26-2.182,2.019-3.454s-4.275-2.95-6.655-3.975a8.949,8.949,0,0,0-7.03-.045,39.822,39.822,0,0,0-6.176,3.67c-1.987,1.266-4.015,2.467-6.015,3.711-2.182,1.356-.176,4.818,2.018,3.454Z"/><path class="d" d="M117.665,24.235A36.177,36.177,0,0,0,123.9,38.474c2.933,3.812,6.7,8.047,11.46,9.49,2.469.749,3.524-3.11,1.063-3.857a13.511,13.511,0,0,1-4.925-3.178,37.194,37.194,0,0,1-4.484-4.918,32.9,32.9,0,0,1-5.489-12.84c-.573-2.508-4.431-1.447-3.857,1.064Z"/><path class="d" d="M117.866,22.4a35.37,35.37,0,0,1-10.114,8.877,37.671,37.671,0,0,1-5.866,2.867,7.664,7.664,0,0,0-.935.341l1.071.68.127-.467a7.153,7.153,0,0,0,.43-1.855,28.536,28.536,0,0,0,.511-4.281,2.02,2.02,0,0,0-3.414-1.414C95.072,31.8,90.42,36.4,85.419,40.624c-1.97,1.663.872,4.48,2.828,2.828,5-4.223,9.653-8.828,14.257-13.476L99.09,28.562a23.749,23.749,0,0,1-.8,5.073c-.424,1.6-.574,3.244,1.009,4.283,1.4.919,2.786.43,4.207-.134s2.792-1.176,4.137-1.871A40.505,40.505,0,0,0,121.32,24.419a2.013,2.013,0,0,0-.717-2.737,2.05,2.05,0,0,0-2.737.718Z"/><path class="d" d="M125.085,3.035A41.373,41.373,0,0,0,89.471,5.181a32.057,32.057,0,0,0-10.447,8.982A40.209,40.209,0,0,0,72.941,27.2a70.208,70.208,0,0,0-2.23,21.032c.079,2.568,4.079,2.579,4,0-.316-10.338.918-21.482,6.623-30.381C86.4,9.938,96.059,5.108,105.239,4.12a39.138,39.138,0,0,1,18.782,2.772,2.014,2.014,0,0,0,2.461-1.4,2.049,2.049,0,0,0-1.4-2.46Z"/><path class="d" d="M146.486,48.228a81.2,81.2,0,0,0-.079-11.546,47.226,47.226,0,0,0-2.03-11.578c-2.375-7.43-6.717-14.641-13.6-18.668-2.226-1.3-4.242,2.153-2.019,3.454,6.211,3.635,9.989,10.329,12,17.053a44.5,44.5,0,0,1,1.681,10.324,79.088,79.088,0,0,1,.045,10.961c-.211,2.566,3.791,2.552,4,0Z"/><path class="d" d="M70.713,48.228C70.7,55.91,70.588,63.887,68.791,71.4a75.594,75.594,0,0,0-1.944,10.939c-.312,3.5.017,6.655,2.22,9.523a13.936,13.936,0,0,0,11.345,5.211c2.573-.026,2.579-4.026,0-4A9.956,9.956,0,0,1,72.187,89.4c-1.859-2.467-1.547-5.271-1.229-8.175a88.755,88.755,0,0,1,1.849-9.461,73.95,73.95,0,0,0,1.31-9.047c.447-4.816.59-9.656.6-14.491,0-2.574-4-2.578-4,0Z"/><path class="d" d="M142.486,48.228a90.2,90.2,0,0,0,2.941,22.821c1.531,5.493,5.232,12.333,1.265,17.533a9.024,9.024,0,0,1-10.231,3.23c-2.443-.829-3.491,3.033-1.063,3.857a12.674,12.674,0,0,0,12.129-2.279,12.538,12.538,0,0,0,4.9-9.579c-.031-4.018-1.221-7.673-2.427-11.447a68.43,68.43,0,0,1-2.1-8.42,94.6,94.6,0,0,1-1.41-15.716c-.039-2.571-4.04-2.579-4,0Z"/><path class="d" d="M95.741,81.093a31.115,31.115,0,0,1-.425,3.457,21.112,21.112,0,0,1-.391,2.191c-.024.084-.055.167-.079.252-.084.305.016-.144.056-.113a2.588,2.588,0,0,1-.226.4c-.089.217.264-.211.063-.078a1.207,1.207,0,0,0-.146.156c-.07.07-.145.136-.221.2.219-.183.114-.086-.062.013-.07.039-.553.294-.284.169-.213.1-.495.2-.693.284l-.228.1c-2.088.949-4.162,1.931-6.246,2.889q-.807.372-1.617.739c-.192.087-.386.171-.578.258-.42.19.527-.2.148-.064a2,2,0,1,0,1.064,3.857c.877-.314,1.728-.751,2.574-1.14q1.923-.88,3.84-1.774,1.416-.657,2.834-1.311c.075-.035.155-.065.228-.1.026-.014-.726.293-.361.157.177-.067.35-.143.524-.216a6.055,6.055,0,0,0,.888-.439A5.4,5.4,0,0,0,98.61,88.3a11.635,11.635,0,0,0,.517-2.419c.263-1.59.5-3.18.614-4.789a2.011,2.011,0,0,0-2-2,2.047,2.047,0,0,0-2,2Z"/><path class="d" d="M119.674,80.394a49.912,49.912,0,0,0,.862,6.856,5.744,5.744,0,0,0,3.815,4.348c.607.241-.556-.266-.123-.057.138.068.28.131.419.2l1.321.622,3.575,1.692c.813.385,1.62.8,2.447,1.151a2.069,2.069,0,0,0,2.737-.718,2.014,2.014,0,0,0-.718-2.736c-1.755-.749-3.463-1.632-5.188-2.448-.837-.4-1.671-.8-2.514-1.184l-.2-.091c-.228-.1-.469-.179-.694-.284.252.117-.311-.188-.376-.226-.315-.18.185.181-.162-.131-.056-.049-.1-.109-.154-.158.049.045.223.363.054.07-.065-.113-.127-.249-.2-.354.207.285.1.274.045.106-.026-.086-.058-.171-.084-.257a21.234,21.234,0,0,1-.449-2.495,34.41,34.41,0,0,1-.412-3.9,2,2,0,0,0-4,0Z"/><path class="d" d="M137.806,47.668a2.545,2.545,0,0,1,2.171-.432,3.233,3.233,0,0,1,.642.193c-.3-.131.206.141.215.146.383.2-.115-.182.122.095.092.107.2.217.3.316-.359-.351-.074-.112.006.036a3.98,3.98,0,0,0,.206.357,8.052,8.052,0,0,1,.357,1.256,11.125,11.125,0,0,1,.071,2.771,10.581,10.581,0,0,1-1.617,4.522c-.961,1.552-2.492,3.085-4.309,2.883a2.013,2.013,0,0,0-2,2,2.046,2.046,0,0,0,2,2c2.5.278,4.8-1.24,6.4-3.043a15.176,15.176,0,0,0,2.988-5.447c1.156-3.56.993-8.97-2.5-11.2a6.78,6.78,0,0,0-7.875.718,2.017,2.017,0,0,0,0,2.829,2.042,2.042,0,0,0,2.828,0Z"/><path class="d" d="M129.434,92.656a24.355,24.355,0,0,1-8.5,4.067A39.88,39.88,0,0,1,87.3,91.994c-2.134-1.452-4.137,2.013-2.019,3.454a43.846,43.846,0,0,0,37.1,5.012,28.814,28.814,0,0,0,9.874-4.976c1.985-1.642-.858-4.458-2.829-2.828Z"/><path class="d" d="M83.834,44.839A6.8,6.8,0,0,0,76.7,43.751a6.179,6.179,0,0,0-3.439,4.256,14.6,14.6,0,0,0,2.357,11.848c1.666,2.322,4.187,4.339,7.224,3.957a2.065,2.065,0,0,0,2-2,2.012,2.012,0,0,0-2-2c-1.973.248-3.343-1.178-4.294-2.777a10.6,10.6,0,0,1-1.582-7.283,4.3,4.3,0,0,1,.743-1.966c-.3.446-.065.091.039-.01.072-.074.147-.144.225-.211q-.251.185-.069.059c.058-.036.583-.323.289-.2a3.227,3.227,0,0,1,.642-.193,2.529,2.529,0,0,1,2.171.432,2.053,2.053,0,0,0,2.828,0,2.017,2.017,0,0,0,0-2.829Z"/><path class="d" d="M134.5,59.63a19.437,19.437,0,0,1-1.4,4.281c-.142.342-.272.689-.406,1.035.241-.622-.15.3-.239.482a36.8,36.8,0,0,1-3.09,5.051c-2.607,3.639-6.178,7.565-10.647,8.614-2.5.588-1.444,4.445,1.064,3.857,5.408-1.27,9.576-5.735,12.742-10.045a37.472,37.472,0,0,0,3.35-5.389,25.063,25.063,0,0,0,2.478-6.823,2.061,2.061,0,0,0-1.4-2.46,2.015,2.015,0,0,0-2.46,1.4Z"/><path class="d" d="M80.424,59.865c2.253,10.483,10.1,21.978,21.406,23.684a2.064,2.064,0,0,0,2.46-1.4,2.016,2.016,0,0,0-1.4-2.461C92.877,78.18,86.271,68.059,84.281,58.8c-.541-2.515-4.4-1.451-3.857,1.063Z"/><path class="d" d="M108.962,56.1a24.972,24.972,0,0,1,.59,2.7l-.071-.532a1.606,1.606,0,0,1,.01.373l.071-.532a.808.808,0,0,1-.041.168l.2-.478a.628.628,0,0,1-.059.108l.313-.405a.563.563,0,0,1-.089.087l.405-.312a1.816,1.816,0,0,1-.214.113l.478-.2a1.572,1.572,0,0,1-.361.1l.532-.071a1.373,1.373,0,0,1-.339,0l.532.072c-.128-.018-.253-.049-.381-.066a1.512,1.512,0,0,0-.8-.036,1.492,1.492,0,0,0-.744.237,2,2,0,0,0-.717,2.737l.312.405a2.009,2.009,0,0,0,.883.514c.345.046.68.133,1.031.148a3.4,3.4,0,0,0,1.59-.388A2.43,2.43,0,0,0,113.4,59.26a3.712,3.712,0,0,0-.013-1.638c-.147-.87-.348-1.733-.572-2.586a2.063,2.063,0,0,0-.919-1.2,2,2,0,0,0-2.737.718,2.1,2.1,0,0,0-.2,1.541Z"/><path class="d" d="M119.815,51.863c1.256.044,2.516,0,3.771-.062A2.106,2.106,0,0,0,125,51.216a2,2,0,0,0,0-2.829,2.008,2.008,0,0,0-1.414-.586c-1.255.063-2.515.106-3.771.062a2,2,0,0,0-1.414,3.414,2.139,2.139,0,0,0,1.414.586Z"/><path class="d" d="M96.225,51.876c1.283.023,2.568-.02,3.851-.062a2.089,2.089,0,0,0,1.414-.586,2,2,0,0,0-1.414-3.414c-1.283.042-2.568.085-3.851.062a2,2,0,0,0-2,2,2.022,2.022,0,0,0,.585,1.414,2.112,2.112,0,0,0,1.415.586Z"/><path class="d" d="M106.071,71.785a5.692,5.692,0,0,0,4.137,1.546,6.828,6.828,0,0,0,3.816-.878,4.3,4.3,0,0,0,1.842-2.507,5.606,5.606,0,0,0,.023-2.592,5.008,5.008,0,0,0-4.079-3.778,6.985,6.985,0,0,0-1.842-.108,6.388,6.388,0,0,0-2.073.54,5.137,5.137,0,0,0-1.824,7.777,2.013,2.013,0,0,0,2.828,0,2.044,2.044,0,0,0,0-2.828c-.026-.029-.051-.058-.076-.089l.313.405a1.9,1.9,0,0,1-.248-.43l.2.477a2.763,2.763,0,0,1-.165-.621l.072.532a3.517,3.517,0,0,1,0-.911l-.071.532a3.766,3.766,0,0,1,.237-.886l-.2.478a3.473,3.473,0,0,1,.417-.73l-.313.405a3.328,3.328,0,0,1,.577-.579l-.405.313a3.4,3.4,0,0,1,.708-.4l-.478.2a3.976,3.976,0,0,1,.882-.235l-.531.072a5.3,5.3,0,0,1,1.384.006l-.531-.071a4.233,4.233,0,0,1,1.03.278l-.478-.2a3.355,3.355,0,0,1,.684.4l-.405-.313a3.044,3.044,0,0,1,.506.515L111.7,67.7a3.134,3.134,0,0,1,.365.639l-.2-.478a3.412,3.412,0,0,1,.221.831l-.071-.532a3.622,3.622,0,0,1,0,.907l.071-.531a3.015,3.015,0,0,1-.185.7l.2-.478a2.039,2.039,0,0,1-.236.42l.313-.405a2.7,2.7,0,0,1-.471.466l.405-.313a2.989,2.989,0,0,1-.569.323l.478-.2a4.633,4.633,0,0,1-1.094.282l.532-.072a8.027,8.027,0,0,1-2.025.02l.532.072a4.383,4.383,0,0,1-.989-.26l.478.2a3.274,3.274,0,0,1-.621-.351l.405.313a3.135,3.135,0,0,1-.333-.3,2,2,0,0,0-2.828,2.828Z"/><path class="d" d="M72.333,118.475a122.7,122.7,0,0,0,.225,19.764c.328,3.416.79,6.82,1.316,10.211a72.017,72.017,0,0,1,1.3,10.625,86.541,86.541,0,0,1-.854,10.6c-.418,3.526-.9,7.042-1.42,10.554s-1.067,7.04-1.61,10.559c-.415,2.684-2.259,7.985,1.937,8.429,1.973.208,3.99.178,5.971.22,3.738.079,7.477.119,11.216.145,9.078.063,18.16.054,27.236-.161,4.172-.1,8.335-.3,12.5-.539,2.914-.165,5.83-.343,8.733-.651A27,27,0,0,0,145.642,197a2.059,2.059,0,0,0,1.4-2.46c-1.274-5.6-2.349-11.241-3.148-16.93q-.606-4.311-1.041-8.648a30.27,30.27,0,0,1,.5-8.934c1.785-9.478,1.831-19.283,1.641-28.892-.1-5.306-.345-10.609-.659-15.906-.152-2.559-4.153-2.576-4,0,.582,9.807.95,19.654.569,29.478a97.457,97.457,0,0,1-1.348,13.937,34.363,34.363,0,0,0-.838,8.838c.216,2.973.617,5.944,1.007,8.9q1.278,9.695,3.459,19.221l1.4-2.46a26.686,26.686,0,0,1-7.059,1.219c-3.044.28-6.1.448-9.147.615q-6.778.374-13.559.5c-10.624.194-21.255.18-31.879.023-2.087-.031-4.175-.068-6.261-.128-.708-.021-1.415-.043-2.122-.076-.254-.011-.508-.023-.761-.039l-.317-.022c-.382-.024.036-.14.257.016l.718.718c.213.291,0,.194.095-.229.068-.318.1-.655.149-.977q.15-.974.3-1.946.317-2.052.634-4.1.593-3.83,1.162-7.663c.768-5.238,1.477-10.488,2.011-15.756a49.845,49.845,0,0,0,.317-7.905,74.873,74.873,0,0,0-1.038-7.832c-.79-4.82-1.45-9.662-1.787-14.537a123.338,123.338,0,0,1,.042-16.549c.168-2.57-3.833-2.56-4,0Z"/><path class="d" d="M94.884,87.035c-4.515,2.086-9.094,4.029-13.635,6.059A97.182,97.182,0,0,0,68.5,99.4c-6.037,3.857-9.662,10.129-12,16.739s-3.444,13.561-5.115,20.354A182.759,182.759,0,0,1,46.191,155c-2.991,8.294-6.517,16.725-11.446,24.075-1.438,2.143,2.025,4.148,3.454,2.018,4.345-6.479,7.517-13.811,10.352-21.051,1.393-3.558,2.681-7.164,3.752-10.833.7-2.408,1.213-4.892,1.838-7.323,1.768-6.873,3.005-13.89,4.956-20.713,1.814-6.344,4.478-12.84,9.734-17.112a29.894,29.894,0,0,1,5.381-3.23c2.42-1.235,4.878-2.394,7.352-3.517,5.1-2.315,10.258-4.48,15.339-6.827a2.015,2.015,0,0,0,.717-2.736,2.047,2.047,0,0,0-2.736-.718Z"/><path class="d" d="M56.685,190.283c5.131-4.145,8.878-9.759,12.061-15.469,2.49-4.469,4.794-9.062,6.942-13.7l2.15-4.645a2.058,2.058,0,0,0-.718-2.736,2.016,2.016,0,0,0-2.736.717c-2,4.319-4.022,8.6-6.181,12.846-3.741,7.352-7.824,14.894-14.346,20.163a2.014,2.014,0,0,0,0,2.829,2.047,2.047,0,0,0,2.828,0Z"/><path class="d" d="M122.5,90.489c4.445,2.053,8.951,3.968,13.421,5.964a106.441,106.441,0,0,1,12.68,6.226c5.719,3.533,8.9,9.735,10.925,15.939,2.147,6.582,3.232,13.441,4.935,20.139a181.54,181.54,0,0,0,5.285,18.381c3.042,8.237,6.549,16.637,11.459,23.957,1.426,2.128,4.893.128,3.454-2.018-4.37-6.515-7.575-13.892-10.374-21.193a88,88,0,0,1-3.589-10.695q-.923-3.816-1.9-7.616c-1.779-6.941-2.956-14.051-5.063-20.9-2.021-6.577-5.088-13.244-10.584-17.635-3.917-3.129-8.759-5.112-13.292-7.171-5.1-2.315-10.259-4.48-15.34-6.827a2.059,2.059,0,0,0-2.736.718,2.016,2.016,0,0,0,.717,2.736Z"/><path class="d" d="M165.543,187.454c-9.027-7.293-13.421-18.661-18.688-28.659l-2.351-4.461c-1.2-2.278-4.654-.259-3.454,2.019,1.38,2.62,2.8,5.223,4.13,7.867,3.048,6.039,5.978,12.195,9.918,17.72a41.681,41.681,0,0,0,7.617,8.343,2.06,2.06,0,0,0,2.828,0,2.014,2.014,0,0,0,0-2.829Z"/><path class="e" d="M52.645,81.449A186.429,186.429,0,0,1,17.42,94.192c-2.5.6-1.442,4.46,1.064,3.857A191.737,191.737,0,0,0,54.664,84.9a2.019,2.019,0,0,0,.718-2.737,2.045,2.045,0,0,0-2.737-.717Z"/><path class="e" d="M165.408,82.14c15.077,7.093,31.452,9.93,48.038,9.983,2.574.009,2.577-3.991,0-4-15.846-.051-31.6-2.653-46.019-9.437-2.316-1.09-4.349,2.358-2.019,3.454Z"/><path class="e" d="M16.01,113.69c-4.777,2.343-9.616,4.565-14.539,6.583a2.064,2.064,0,0,0-1.4,2.46,2.013,2.013,0,0,0,2.46,1.4c5.244-2.149,10.406-4.491,15.5-6.986a2.018,2.018,0,0,0,.717-2.736,2.041,2.041,0,0,0-2.736-.718Z"/><path class="e" d="M56.9,88.814a227.226,227.226,0,0,1-30.92,19.733c-2.264,1.226-.247,4.681,2.019,3.454A233.227,233.227,0,0,0,59.731,91.642a2.01,2.01,0,0,0,0-2.828,2.051,2.051,0,0,0-2.828,0Z"/><path class="e" d="M210.633,111.735a185.772,185.772,0,0,0,24.971,4.827,2.011,2.011,0,0,0,2-2,2.049,2.049,0,0,0-2-2,178.176,178.176,0,0,1-23.907-4.684c-2.49-.663-3.552,3.194-1.064,3.857Z"/><path class="e" d="M159.359,89.219a189.932,189.932,0,0,0,42.3,19.86c2.453.8,3.5-3.062,1.063-3.857a185.592,185.592,0,0,1-41.342-19.457c-2.185-1.375-4.195,2.084-2.019,3.454Z"/><path class="a" d="M204.9,209.464c-.635-.509-1.374-1.081-2.113-1.7-.441-.371-.945-.806-1.487-1.283l.872.093c1.489.538,2.725.062,3.082-.66a2.462,2.462,0,0,0-.245-2.873c-1.7-1.557-4.37-4.537-6.2-6.094,0,0-.763-.727-1.586-1.519.137.045.273.092.407.142a5.988,5.988,0,0,0,4.668.1,2.47,2.47,0,0,0,1.223-2.873c-.268-.879-1.515-1.928-3.493-3.194-.627-.4-3.084-2.441-3.7-2.862-2.575-1.763-4.023-3.028-6.238-3.955-1.975-.827-4.51-.9-7.018-.932-2.434-.283-4.8-.723-6.137.282-1.923.758-4.568,3.509-5.855,5.22l-.372.494a4.734,4.734,0,0,0-.967,4.091l.478,1.43c2.607,6.069,3.334,8.238,7.42,13.61,1.457,1.916,5.668,5.063,7.551,6.514,1.748,1.346,3.392,2.26,5.214,3.513,1.468,1.01,2.987,1.071,3.855-.223.508-.759.38-1.512-.037-2.836.9.787,1.83,1.58,2.825,2.4a4.5,4.5,0,0,0,1.272.7,2.608,2.608,0,0,0,2.237-.35,2.14,2.14,0,0,0,.985-2.348,4.981,4.981,0,0,0-1.445-2.046l1.882,1.155a3,3,0,0,0,3.745-.473,2.351,2.351,0,0,0-.435-3.209C205.163,209.676,205.034,209.571,204.9,209.464Z"/><path class="d" d="M197.392,198.36c1.794,1.534,3.377,3.306,5.044,4.973.354.354.714.7,1.077,1.046.057.05.112.1.164.157q-.255-.358-.131-.166c.239.354-.015-.17.01-.008.075.466.037-.183.027.024a1.89,1.89,0,0,1,0,.226q-.024.339.02-.059a1.245,1.245,0,0,1-.139.493l.058-.143q-.151.258.155-.166a1.072,1.072,0,0,1-.1.109q-.165.155.2-.146a1.4,1.4,0,0,1-.143.087q-.2.107.211-.077s-.366.11-.366.106q.465-.048.123-.018l-.145,0c-.1,0-.2,0-.3-.011q.363.057.134.014c-.194-.058-.392-.1-.586-.163a2.014,2.014,0,0,0-2.46,1.4,2.048,2.048,0,0,0,1.4,2.46c1.8.609,4.265.309,5.3-1.5a4.978,4.978,0,0,0,.554-3.367,4.071,4.071,0,0,0-1.315-2.244c-2.025-1.911-3.836-4.05-5.955-5.862a2,2,0,1,0-2.828,2.829Z"/><path class="d" d="M193.567,202.082c2.422,2.332,4.9,4.618,7.458,6.8.719.613,1.458,1.2,2.2,1.787.165.131.332.262.5.4.09.074.524.578.282.21.064.1.237.527.1.12.039.117.095.567.072.117a2.381,2.381,0,0,1,.007.327q.065-.358.013-.138c-.04.142-.017.105.07-.109q-.171.283.046-.02c-.311.47.15-.164-.213.193q-.318.165-.011.037l-.165.056a2.892,2.892,0,0,1-.331.078c.257-.034.271-.043.04-.029-.136-.016-.571-.113-.092.013-.142-.038-.286-.077-.428-.113-.349-.089.344.2-.122-.075a2,2,0,0,0-2.019,3.453,4.986,4.986,0,0,0,6.585-1.31,4.128,4.128,0,0,0,.405-3.544,5.9,5.9,0,0,0-2.256-2.77c-3.253-2.584-6.314-5.428-9.3-8.307a2,2,0,0,0-2.828,2.828Z"/><path class="d" d="M189.96,205.634c2.832,2.757,5.877,5.292,8.7,8.06.156.154.31.311.459.473.058.065.358.422.257.289-.129-.169.04.06.052.08.053.091.112.192.171.281.027.039.174.257.025.035-.051-.126-.06-.138-.029-.037s.023.089.009,0l-.008-.063c-.009.222,0,.262.012.121-.006-.2,0,.068-.037.1.009-.007.16-.253.008-.052-.134.176,0,.01.027-.026-.024.036-.273.239-.06.068.031-.025-.3.169-.19.121-.16.07-.12.1-.346.071.182.021-.2-.064-.22-.074a3.336,3.336,0,0,1-.527-.323c-.44-.321-.848-.7-1.263-1.057q-1.24-1.055-2.448-2.147-2.7-2.444-5.191-5.093a2,2,0,0,0-2.829,2.829c1.722,1.817,3.506,3.574,5.366,5.251q1.448,1.305,2.945,2.554a6.879,6.879,0,0,0,4.052,2.052,4.379,4.379,0,0,0,4.289-6.082c-.828-1.819-2.763-3.2-4.195-4.538-2.057-1.921-4.182-3.766-6.2-5.73a2,2,0,0,0-2.828,2.829Z"/><path class="d" d="M192.506,215.209c.1.434.163.509-.114.545-.621.081-1.652-.932-2.13-1.244-1.437-.937-2.883-1.845-4.247-2.887a62.615,62.615,0,0,1-5.776-4.764c-3.766-3.669-5.984-8.919-7.951-13.7-.39-.948-.927-2.033-.554-3.049a9.43,9.43,0,0,1,2.006-2.844,17.476,17.476,0,0,1,2.867-2.664,5.236,5.236,0,0,1,3.805-1.055c1.627.119,3.231.279,4.863.359a11.751,11.751,0,0,1,4.479.9,36.091,36.091,0,0,1,6.545,4.412c.895.711,1.778,1.448,2.717,2.1a17.541,17.541,0,0,1,2.1,1.535c.328.307.546.492.525.665-.1.819-2,.567-2.735.36-1.921-.539-3.845-.9-5.782-1.379-2.5-.617-3.565,3.24-1.063,3.857.982.242,1.978.39,2.969.584,1.1.215,2.118.647,3.2.895,2.009.459,4.48.374,6.046-1.155a4.535,4.535,0,0,0,1.1-4.6c-.565-1.652-2.22-2.779-3.594-3.716-2.4-1.636-4.677-3.526-7.089-5.221a17.3,17.3,0,0,0-4.984-2.609,27.651,27.651,0,0,0-6.422-.684c-2.057-.106-4.162-.706-6.188-.018a13.271,13.271,0,0,0-4.331,2.752c-2.569,2.28-5.839,5.734-5.069,9.476a26.767,26.767,0,0,0,1.91,4.943c.64,1.5,1.286,2.991,2.033,4.437a32.23,32.23,0,0,0,5.764,8.244,61.434,61.434,0,0,0,9.348,7.322c1.961,1.271,4.136,3.215,6.657,2.642,2.6-.591,3.471-3.153,2.949-5.505-.559-2.512-4.416-1.449-3.858,1.063Z"/><path class="d" d="M194.173,197.378a36.14,36.14,0,0,0-9.46,8.8,2.008,2.008,0,0,0-.2,1.542,2,2,0,0,0,3.656.477c.007-.01.3-.387.115-.155s.084-.105.12-.151c.155-.195.313-.389.472-.581q.454-.546.932-1.073.981-1.082,2.053-2.073a16.066,16.066,0,0,1,2.168-1.838c-.382.241-.075.06.011-.006l.3-.223q.3-.222.608-.436.613-.429,1.245-.83a2,2,0,1,0-2.019-3.454Z"/><path class="a" d="M14.5,209.465c.635-.51,1.374-1.082,2.113-1.7.441-.371.945-.806,1.487-1.283l-.872.093c-1.489.538-2.725.062-3.082-.66a2.462,2.462,0,0,1,.245-2.873c1.7-1.557,4.37-4.537,6.2-6.094,0,0,.763-.727,1.586-1.519-.137.045-.273.092-.407.142a5.987,5.987,0,0,1-4.668.1,2.471,2.471,0,0,1-1.223-2.873c.268-.879,1.515-1.928,3.493-3.194.628-.4,3.084-2.441,3.7-2.862,2.574-1.763,4.022-3.028,6.238-3.955,1.974-.827,4.51-.9,7.017-.932,2.434-.283,4.8-.723,6.138.282,1.922.758,4.567,3.509,5.855,5.22l.372.5a4.731,4.731,0,0,1,.966,4.09l-.478,1.43c-2.607,6.069-3.334,8.238-7.42,13.61-1.457,1.916-5.668,5.063-7.551,6.514C32.464,214.837,30.82,215.751,29,217c-1.468,1.01-2.986,1.071-3.854-.223-.509-.759-.381-1.512.036-2.836-.895.787-1.83,1.58-2.825,2.4a4.5,4.5,0,0,1-1.272.7,2.608,2.608,0,0,1-2.237-.35,2.14,2.14,0,0,1-.985-2.348,4.99,4.99,0,0,1,1.445-2.046l-1.882,1.155a3,3,0,0,1-3.745-.473,2.351,2.351,0,0,1,.435-3.209C14.238,209.676,14.366,209.572,14.5,209.465Z"/><path class="d" d="M19.18,195.531c-2.119,1.812-3.93,3.951-5.954,5.862a4.073,4.073,0,0,0-1.316,2.244A4.983,4.983,0,0,0,12.464,207c1.032,1.807,3.494,2.105,5.3,1.5a2,2,0,1,0-1.063-3.857c-.167.056-.337.095-.5.147-.234.043-.217.044.053,0-.075.007-.151.01-.227.01s-.146,0-.219,0c-.185-.017-.188-.016-.01,0s.176.02.005-.015c-.081-.021-.16-.047-.239-.076l.261.1a1.964,1.964,0,0,1-.193-.115l.236.182a1.609,1.609,0,0,1-.141-.145c.194.271.254.34.178.207-.046-.087-.034-.053.035.1-.018-.058-.174-.433-.138-.493.028.265.035.285.019.059v-.152c-.033-.442-.088.343.012-.034.11-.415-.193.325,0,0s-.33.287.024-.006c.4-.328.755-.719,1.118-1.083,1.667-1.668,3.25-3.439,5.045-4.973a2.011,2.011,0,0,0,0-2.829,2.053,2.053,0,0,0-2.829,0Z"/><path class="d" d="M23.005,199.254c-2.991,2.879-6.052,5.723-9.3,8.307a5.909,5.909,0,0,0-2.256,2.77,4.128,4.128,0,0,0,.406,3.544,4.985,4.985,0,0,0,6.584,1.31,2,2,0,0,0-2.019-3.453c-.465.27.227-.013-.122.075-.14.035-.292.067-.428.113.409-.137.081-.033-.092-.013-.23-.014-.217-.005.04.029a3.112,3.112,0,0,1-.5-.134q.308.128-.011-.037l-.159-.1q.225.156-.054-.088.217.3.046.02l.089.186c-.051-.224-.052-.2-.006.061a2.381,2.381,0,0,1,.007-.327c-.026.352.017.07.072-.117-.111.381.032-.017.1-.12-.235.358.11-.067.205-.147.188-.157.381-.308.572-.46.739-.589,1.479-1.174,2.2-1.787,2.559-2.181,5.037-4.467,7.459-6.8a2,2,0,0,0-2.829-2.828Z"/><path class="d" d="M26.612,202.805c-1.786,1.74-3.656,3.387-5.491,5.074-.815.749-1.607,1.522-2.43,2.263a13.173,13.173,0,0,0-2.121,2.305,4.3,4.3,0,0,0,2.613,6.565,5.169,5.169,0,0,0,4.586-1.253c1.033-.828,2.035-1.7,3.026-2.577q3.171-2.8,6.075-5.884a2,2,0,0,0-2.828-2.829q-2.18,2.3-4.5,4.46-1.178,1.09-2.393,2.139a17.09,17.09,0,0,1-2.43,1.964.925.925,0,0,1-.362.14.419.419,0,0,1-.221-.051l-.2-.081s-.251-.227-.1-.084-.139-.257-.031-.041,0-.291-.009-.039c-.007.218.013-.1.012-.121,0,.082-.073.163,0,.06.115-.158-.066.122-.076.14.092-.168.188-.329.292-.489.118-.185-.023.024-.045.051.078-.095.159-.189.241-.28,1.181-1.32,2.6-2.494,3.9-3.689,1.779-1.631,3.587-3.23,5.317-4.914a2,2,0,1,0-2.828-2.829Z"/><path class="d" d="M26.278,192.507c-1.678.414-3.389.594-5.037,1.133-.81.265-2.734.984-3.4.089-.2-.272-.04-.365.045-.475a6.141,6.141,0,0,1,.9-.823c.987-.786,2.078-1.437,3.074-2.218,1.983-1.555,3.7-2.891,5.934-4.341a11.218,11.218,0,0,1,3.533-1.628,41.79,41.79,0,0,1,5.463-.449c1.333-.135,2.99-.614,4.294-.158a9.347,9.347,0,0,1,3,2.033c1.413,1.3,4.292,3.8,3.575,5.968A45.33,45.33,0,0,1,40.2,205.746a35.482,35.482,0,0,1-6.2,5.4c-1.336,1.024-2.708,1.973-4.123,2.883a14.589,14.589,0,0,1-2.518,1.62c-.609.222-.6.136-.473-.44.557-2.508-3.3-3.579-3.857-1.063-.47,2.112.068,4.221,2.156,5.219,2.179,1.042,4.173-.232,5.964-1.4a91.223,91.223,0,0,0,8.952-6.6c5.319-4.473,8.388-10.881,10.9-17.23a7.16,7.16,0,0,0,.441-5.272,13.451,13.451,0,0,0-2.726-4.16c-2.414-2.741-5.471-5.363-9.322-5.184-1.031.049-2.046.257-3.074.328-1.164.079-2.332.036-3.5.149a14.893,14.893,0,0,0-5.845,1.688,61.281,61.281,0,0,0-7.961,5.7c-2.556,1.981-6.753,4.165-4.741,8.154,1.124,2.23,3.811,2.785,6.086,2.445,1.095-.164,2.088-.595,3.157-.856,1.26-.307,2.553-.453,3.813-.764,2.5-.616,1.439-4.475-1.064-3.857Z"/><path class="d" d="M23.208,200.832q.632.4,1.245.83c.184.129.367.259.548.392l.3.222c.047.036.381.3.155.116s.142.111.152.119l.234.187c.194.157.386.315.577.476q.571.483,1.121.991,1.044.966,2,2.017.5.554.982,1.129c.144.173.285.347.425.523.078.1.159.193.232.293-.2-.268-.074-.095.051.071a2.183,2.183,0,0,0,1.2.919,2.042,2.042,0,0,0,1.541-.2,2.022,2.022,0,0,0,.718-2.737,36.16,36.16,0,0,0-9.461-8.8,2.018,2.018,0,0,0-2.737.718,2.044,2.044,0,0,0,.718,2.736Z"/></svg>